<svg fill="#ccc" viewBox="0 0 512 512" 
  xmlns="http://www.w3.org/2000/svg">
  <path d="M256 127.4c-70.6 0-128 57.4-128 128s57.4 128 128 128a128.1 128.1 0 000-256zm0 224a96.1 96.1 0 010-192 96.1 96.1 0 010 192zm0 0"/>
  <path d="M454.2 173.3v-57.2a59 59 0 00-58.9-59h-57.2l-40.5-40.4a60.1 60.1 0 00-83.1 0l-40.6 40.5h-57.2a59 59 0 00-59 58.9v57.2L17.3 214a58.4 58.4 0 000 83l40.6 40.6v57.2a59 59 0 0058.9 59h57.2l40.5 40.5a58.3 58.3 0 0083.1 0l40.6-40.6h57.2a59 59 0 0059-58.8v-57.3l40.4-40.5a58.3 58.3 0 000-83.1zm18 101l-45.3 45.3c-3 3-4.7 7-4.7 11.3v63.9a27 27 0 01-26.9 26.8h-63.8a16 16 0 00-11.4 4.7L275 471.6a26.8 26.8 0 01-37.8 0l-45.2-45.3c-3-3-7.1-4.7-11.3-4.7h-64a27 27 0 01-26.8-26.8v-64a16 16 0 00-4.7-11.2l-45.2-45.3a26.8 26.8 0 010-37.8L85 191.3c3-3 4.7-7 4.7-11.3v-64a27 27 0 0126.9-26.8h63.8a16 16 0 0011.4-4.7L237 39.3a26.8 26.8 0 0137.8 0l45.2 45.2c3 3 7.1 4.7 11.3 4.7h64c14.8 0 26.8 12 26.8 26.9V180a16 16 0 004.7 11.3l45.2 45.2a26.8 26.8 0 010 37.8zm0 0"/>
</svg>
