<svg fill="#333" viewBox="0 0 512 512" 
  xmlns="http://www.w3.org/2000/svg">
  <path d="M304.5 167a16 16 0 00.1-29.8 129.5 129.5 0 00-48.6-9.3c-74.2 0-128 53.9-128 128 0 74.2 53.8 128 128 128 17 0 33.4-3 48.6-9.2a16 16 0 00-.1-29.8c-33.8-13.1-69.8-43.5-69.8-89s36-75.8 69.8-89zm-101.8 89c0 37.3 18.2 71.6 49.4 95.9-53.6-1.9-92.1-41.7-92.1-96s38.5-94 92.1-95.9c-31.2 24.3-49.4 58.5-49.4 96zm0 0"/>
  <path d="M454.2 173.8v-57.2a59 59 0 00-58.9-58.9h-57.2l-40.6-40.5a58.9 58.9 0 00-83 0l-40.6 40.5h-57.2a59 59 0 00-59 58.9v57.2l-40.5 40.6a58.4 58.4 0 000 83L57.8 338v57.3a59 59 0 0058.9 58.8h57.2l40.6 40.6a58.5 58.5 0 0083 0l40.6-40.6h57.2a59 59 0 0059-58.8V338l40.5-40.5a58.3 58.3 0 000-83.1zm18 101l-45.3 45.3c-3 3-4.7 7-4.7 11.3v63.9a27 27 0 01-26.9 26.9h-63.8a16 16 0 00-11.4 4.7L275 472a26.8 26.8 0 01-37.8 0l-45.2-45.2c-3-3-7-4.7-11.3-4.7h-64a27 27 0 01-26.8-27v-63.8A16 16 0 0085 320l-45.2-45.2a26.7 26.7 0 010-37.9L85 191.8c3-3 4.7-7.1 4.7-11.3v-64c0-14.7 12-26.8 26.9-26.8h63.8A16 16 0 00192 85L237 39.8a26.8 26.8 0 0137.8 0L320.1 85c3 3 7 4.7 11.3 4.7h64a27 27 0 0126.8 26.9v63.9a16 16 0 004.7 11.3l45.2 45.2a26.6 26.6 0 010 37.9zm0 0"/>
</svg>
